<svg xmlns="http://www.w3.org/2000/svg">
  <defs>
    <symbol id="brand" viewBox="0 0 85 107">
      <path fill="#F041FF" d="M4246 9165 c-423 -42 -802 -125 -1143 -249 -1223 -445 -2187 -1401 -2637 -2614 -129 -349 -208 -686 -252 -1082 -17 -152 -30 -587 -20 -643 l7 -37 914 0 914 0 6 48 c27 201 123 355 263 420 83 39 193 38 277 -1 33 -15 81 -48 106 -73 l45 -45 67 26 c152 57 298 15 382 -109 28 -42 32 -44 90 -49 91 -9 150 -34 210 -89 58 -53 111 -145 121 -210 6 -34 10 -38 43 -43 125 -20 180 -45 234 -104 20 -23 37 -44 37 -49 1 -4 5 -27 10 -52 12 -64 -5 -152 -47 -243 -20 -42 -34 -79 -32 -81 4 -4 266 -109 351 -141 106 -39 208 24 208 128 0 67 -24 97 -184 230 -93 77 -159 140 -166 157 -29 70 24 150 99 150 32 0 55 -14 157 -92 392 -302 372 -288 424 -288 97 0 158 96 115 180 -8 16 -68 75 -132 132 -285 248 -293 257 -293 297 1 57 47 99 97 86 13 -3 150 -103 304 -223 166 -129 296 -223 320 -231 35 -12 46 -11 84 4 73 28 103 75 96 154 -5 51 -37 85 -225 236 -254 203 -266 218 -231 284 20 39 67 55 108 37 18 -7 126 -79 240 -159 130 -91 221 -149 243 -153 48 -9 101 13 137 59 39 48 43 117 9 164 -21 30 -923 683 -992 718 -18 10 -59 20 -90 22 -96 9 -134 -10 -344 -178 -109 -85 -217 -163 -253 -180 -211 -100 -443 -64 -623 98 -86 77 -111 162 -71 248 10 22 134 167 277 325 142 157 266 294 274 305 15 18 12 18 -90 12 -177 -10 -310 -47 -483 -134 -49 -24 -123 -53 -165 -63 -164 -41 -588 -87 -1007 -110 -498 -27 -1175 -48 -1175 -37 0 3 22 68 49 144 202 571 510 1055 943 1484 622 616 1432 1003 2313 1105 182 21 641 25 815 6 476 -52 882 -168 1353 -387 175 -81 360 34 360 225 0 67 -37 147 -85 183 -108 81 -501 240 -808 327 -254 72 -442 108 -761 146 -186 22 -615 27 -793 9z" />
      <path fill="currentColor" d="M4290 6297 c-103 -43 -413 -279 -656 -498 -96 -86 -127 -121 -140 -154 -50 -133 93 -263 219 -198 18 9 154 98 302 198 149 100 290 193 315 205 63 32 191 40 258 15 56 -21 56 -21 382 -252 140 -99 379 -266 530 -372 151 -106 289 -207 307 -224 67 -63 89 -152 67 -271 -21 -111 -7 -175 58 -258 56 -71 75 -75 433 -93 176 -8 401 -20 500 -25 99 -5 477 -23 840 -40 716 -32 753 -34 761 -43 12 -11 -38 -285 -86 -472 -93 -365 -232 -704 -418 -1015 -184 -311 -343 -513 -616 -786 -317 -316 -604 -524 -1001 -724 -702 -354 -1516 -489 -2280 -379 -775 112 -1459 422 -2030 920 -129 112 -340 328 -440 449 -43 52 -94 107 -114 121 -197 143 -454 -52 -375 -284 10 -29 48 -85 101 -149 529 -634 1219 -1108 1988 -1364 253 -84 548 -153 815 -190 186 -26 882 -32 1082 -9 488 55 937 182 1379 391 1307 615 2231 1833 2473 3259 66 386 73 930 20 1450 -16 157 -58 412 -69 423 -29 30 -1497 34 -2470 8 -811 -22 -991 -19 -1120 17 -130 37 -305 112 -573 245 -232 115 -237 117 -311 120 -61 2 -87 -2 -131 -21z" />
    </symbol>
  </defs>
</svg>
